<svg xmlns="http://www.w3.org/2000/svg">
<defs>
    <symbol id="1-2-3-min" width="81" height="132" viewBox="0 0 81 132" fill="none" xmlns="http://www.w3.org/2000/svg">
<path d="M26.816 66H14.976V36.624C14.976 36.9227 15.104 37.072 15.36 37.072C15.4027 37.072 15.4453 37.072 15.488 37.072C15.5733 37.072 15.6373 37.0507 15.68 37.008L6.08 41.872L0.64 30.544L13.248 24.08C14.4853 23.44 15.7227 22.9067 16.96 22.48C18.24 22.0533 19.4133 21.84 20.48 21.84C22.4 21.84 23.936 22.4373 25.088 23.632C26.24 24.8267 26.816 26.5547 26.816 28.816V66Z" fill="#F76707"/>
<path d="M52.9984 85H28.8704C26.3958 85 24.5398 84.4027 23.3024 83.208C22.0651 81.9707 21.4464 80.4987 21.4464 78.792C21.4464 77.384 21.7238 76.1253 22.2784 75.016C22.8758 73.9067 23.7718 72.84 24.9664 71.816L35.4624 62.792C36.9558 61.512 38.0864 60.3813 38.8544 59.4C39.6224 58.376 40.0064 57.2027 40.0064 55.88C40.0064 55.1973 39.8358 54.5787 39.4944 54.024C39.1531 53.4267 38.6411 52.936 37.9584 52.552C37.2758 52.168 36.4438 51.976 35.4624 51.976C33.7984 51.976 32.3478 52.5093 31.1104 53.576C29.9158 54.6427 29.0198 55.88 28.4224 57.288L19.4624 52.232C20.3584 50.0987 21.6171 48.1787 23.2384 46.472C24.8598 44.7227 26.7798 43.3573 28.9984 42.376C31.2598 41.352 33.7558 40.84 36.4864 40.84C39.5158 40.84 42.1824 41.48 44.4864 42.76C46.7904 44.04 48.5824 45.7467 49.8624 47.88C51.1851 49.9707 51.8464 52.2747 51.8464 54.792C51.8464 57.608 51.3344 60.04 50.3104 62.088C49.2864 64.0933 47.8144 65.928 45.8944 67.592L36.9344 75.4C37.0198 75.3147 37.0838 75.2293 37.1264 75.144C37.2118 75.016 37.2544 74.9093 37.2544 74.824C37.2544 74.6107 37.1691 74.44 36.9984 74.312C36.8278 74.184 36.6144 74.12 36.3584 74.12H52.9984V85Z" fill="black"/>
<path d="M44.5098 75.68V64.8H66.5898C69.1071 64.8 71.0058 65.4187 72.2858 66.656C73.6085 67.8507 74.2698 69.3013 74.2698 71.008C74.2698 72.032 73.9925 73.0773 73.4378 74.144C72.9258 75.2107 72.2005 76.2987 71.2618 77.408L64.8618 85.024C65.0325 84.8107 65.1391 84.6187 65.1818 84.448C65.2671 84.2347 65.3098 84.0427 65.3098 83.872C65.3098 83.5307 65.1818 83.232 64.9258 82.976C64.7125 82.72 64.3711 82.592 63.9018 82.592H65.6938C67.4005 82.592 69.0005 83.1253 70.4938 84.192C72.0298 85.216 73.2671 86.624 74.2058 88.416C75.1871 90.208 75.6778 92.256 75.6778 94.56C75.6778 97.2907 74.9951 99.7653 73.6298 101.984C72.3071 104.16 70.4298 105.888 67.9978 107.168C65.5658 108.405 62.7071 109.024 59.4218 109.024C55.6671 109.024 52.3605 108.213 49.5018 106.592C46.6431 104.971 44.4245 102.475 42.8458 99.104L53.0218 93.728C53.6191 95.3067 54.5151 96.48 55.7098 97.248C56.9045 98.016 58.2058 98.4 59.6138 98.4C60.5098 98.4 61.2778 98.2293 61.9178 97.888C62.6005 97.5467 63.1125 97.0773 63.4538 96.48C63.8378 95.8827 64.0298 95.2 64.0298 94.432C64.0298 93.28 63.5605 92.3413 62.6218 91.616C61.7258 90.8907 60.5738 90.528 59.1658 90.528H57.3098C55.7738 90.528 54.5578 90.1227 53.6618 89.312C52.8085 88.5013 52.3605 87.52 52.3178 86.368C52.3178 85.6427 52.5098 84.9173 52.8938 84.192C53.2778 83.424 53.8111 82.6347 54.4938 81.824L60.4458 74.848C60.4031 74.8907 60.3605 74.9547 60.3178 75.04C60.2751 75.0827 60.2538 75.1467 60.2538 75.232C60.2538 75.36 60.2965 75.4667 60.3818 75.552C60.4671 75.6373 60.5738 75.68 60.7018 75.68H44.5098Z" fill="#F76707"/>
</symbol>

<symbol id="8-1-min" width="81" height="132" viewBox="0 0 81 132" fill="none" xmlns="http://www.w3.org/2000/svg">
<path d="M21.44 66.96C17.6853 66.96 14.464 66.448 11.776 65.424C9.088 64.4 7.04 62.928 5.632 61.008C4.224 59.088 3.52 56.8053 3.52 54.16C3.52 52.368 3.904 50.704 4.672 49.168C5.48267 47.632 6.656 46.3947 8.192 45.456C9.728 44.5173 11.6053 44.048 13.824 44.048V45.2C11.5627 45.2 9.70667 44.752 8.256 43.856C6.848 42.9173 5.80267 41.7013 5.12 40.208C4.48 38.7147 4.16 37.1147 4.16 35.408C4.16 32.6773 4.88533 30.3093 6.336 28.304C7.78667 26.2987 9.81333 24.7413 12.416 23.632C15.0187 22.48 18.048 21.904 21.504 21.904C25.0027 21.904 28.032 22.48 30.592 23.632C33.152 24.7413 35.136 26.2987 36.544 28.304C37.9947 30.3093 38.72 32.6773 38.72 35.408C38.72 37.1147 38.3787 38.7147 37.696 40.208C37.056 41.7013 36.032 42.9173 34.624 43.856C33.216 44.752 31.36 45.2 29.056 45.2V44.048C31.3173 44.048 33.1947 44.5173 34.688 45.456C36.224 46.352 37.376 47.568 38.144 49.104C38.9547 50.5973 39.36 52.24 39.36 54.032C39.36 56.6773 38.656 58.9813 37.248 60.944C35.84 62.864 33.792 64.3573 31.104 65.424C28.4587 66.448 25.2373 66.96 21.44 66.96ZM21.44 57.04C23.4453 57.04 24.96 56.656 25.984 55.888C27.008 55.12 27.52 54.1173 27.52 52.88C27.52 52.0693 27.264 51.3653 26.752 50.768C26.2827 50.1707 25.6 49.7013 24.704 49.36C23.808 49.0187 22.72 48.848 21.44 48.848C20.2027 48.848 19.1147 49.0187 18.176 49.36C17.28 49.7013 16.576 50.1707 16.064 50.768C15.5947 51.3653 15.36 52.0693 15.36 52.88C15.36 54.1173 15.872 55.12 16.896 55.888C17.9627 56.656 19.4773 57.04 21.44 57.04ZM21.44 40.464C23.1467 40.464 24.4693 40.08 25.408 39.312C26.3893 38.5013 26.88 37.392 26.88 35.984C26.88 35.1733 26.6453 34.4693 26.176 33.872C25.7493 33.232 25.1307 32.7413 24.32 32.4C23.5093 32.016 22.528 31.824 21.376 31.824C20.2667 31.824 19.3067 32.016 18.496 32.4C17.6853 32.7413 17.0667 33.232 16.64 33.872C16.2133 34.4693 16 35.1733 16 35.984C16 37.392 16.4693 38.5013 17.408 39.312C18.3893 40.08 19.7333 40.464 21.44 40.464Z" fill="#F76707"/>
<path d="M72.0498 108H60.2098V78.624C60.2098 78.9227 60.3378 79.072 60.5938 79.072C60.6364 79.072 60.6791 79.072 60.7218 79.072C60.8071 79.072 60.8711 79.0507 60.9138 79.008L51.3138 83.872L45.8738 72.544L58.4818 66.08C59.7191 65.44 60.9564 64.9067 62.1938 64.48C63.4738 64.0533 64.6471 63.84 65.7138 63.84C67.6338 63.84 69.1698 64.4373 70.3218 65.632C71.4738 66.8267 72.0498 68.5547 72.0498 70.816V108Z" fill="#F76707"/>
<path d="M40.6039 104H27.7399L23.1959 95.872C22.5559 94.7627 22.0653 93.5467 21.7239 92.224C21.4253 90.8587 21.2759 89.5147 21.2759 88.192C21.2759 86.8267 21.4253 85.4613 21.7239 84.096C22.0653 82.7307 22.5559 81.472 23.1959 80.32L27.6759 72H40.6679L33.4359 84.736C32.6253 86.1013 32.2199 87.2107 32.2199 88.064C32.2199 88.96 32.6893 90.2187 33.6279 91.84L40.6039 104ZM14.6199 104H1.75594L8.73194 91.84C9.67061 90.2187 10.1399 88.96 10.1399 88.064C10.1399 87.2107 9.73461 86.1013 8.92394 84.736L1.69194 72H14.6839L19.1639 80.32C19.8039 81.472 20.2733 82.7307 20.5719 84.096C20.9133 85.4613 21.0839 86.8267 21.0839 88.192C21.0839 89.5147 20.9133 90.8587 20.5719 92.224C20.2733 93.5467 19.8039 94.7627 19.1639 95.872L14.6199 104ZM27.9959 92.992H15.3879V82.752H27.9959V92.992Z" fill="black"/>
</symbol>

<symbol id="6-2-min" width="81" height="132" viewBox="0 0 81 132" fill="none" xmlns="http://www.w3.org/2000/svg">
<path d="M18.688 67.024C15.1893 67.024 12.1813 66.32 9.664 64.912C7.18933 63.504 5.26933 61.648 3.904 59.344C2.58133 57.04 1.92 54.544 1.92 51.856C1.92 49.5093 2.32533 47.2907 3.136 45.2C3.94667 43.0667 5.16267 40.5707 6.784 37.712L15.36 22.8H28.544L16.256 44.624L8.064 45.584C8.064 43.92 8.64 42.4053 9.792 41.04C10.944 39.6747 12.416 38.608 14.208 37.84C16.0427 37.0293 17.9627 36.624 19.968 36.624C22.912 36.624 25.5573 37.1787 27.904 38.288C30.2507 39.3973 32.1067 41.0187 33.472 43.152C34.8373 45.2427 35.52 47.7813 35.52 50.768C35.52 53.9253 34.816 56.7413 33.408 59.216C32 61.648 30.0373 63.568 27.52 64.976C25.0027 66.3413 22.0587 67.024 18.688 67.024ZM18.56 56.848C19.6693 56.848 20.6293 56.592 21.44 56.08C22.2507 55.568 22.8693 54.8853 23.296 54.032C23.7653 53.1787 24 52.24 24 51.216C24 50.32 23.7653 49.4667 23.296 48.656C22.8693 47.8027 22.2507 47.12 21.44 46.608C20.6293 46.096 19.6693 45.84 18.56 45.84C17.4933 45.84 16.5333 46.1173 15.68 46.672C14.8693 47.184 14.2293 47.8667 13.76 48.72C13.3333 49.5733 13.12 50.448 13.12 51.344C13.12 52.368 13.3333 53.3067 13.76 54.16C14.2293 54.9707 14.8693 55.632 15.68 56.144C16.5333 56.6133 17.4933 56.848 18.56 56.848Z" fill="#F76707"/>
<path d="M40.552 104H27.688L23.144 95.872C22.504 94.7627 22.0133 93.5467 21.672 92.224C21.3733 90.8587 21.224 89.5147 21.224 88.192C21.224 86.8267 21.3733 85.4613 21.672 84.096C22.0133 82.7307 22.504 81.472 23.144 80.32L27.624 72H40.616L33.384 84.736C32.5733 86.1013 32.168 87.2107 32.168 88.064C32.168 88.96 32.6373 90.2187 33.576 91.84L40.552 104ZM14.568 104H1.704L8.68 91.84C9.61867 90.2187 10.088 88.96 10.088 88.064C10.088 87.2107 9.68267 86.1013 8.872 84.736L1.64 72H14.632L19.112 80.32C19.752 81.472 20.2213 82.7307 20.52 84.096C20.8613 85.4613 21.032 86.8267 21.032 88.192C21.032 89.5147 20.8613 90.8587 20.52 92.224C20.2213 93.5467 19.752 94.7627 19.112 95.872L14.568 104ZM27.944 92.992H15.336V82.752H27.944V92.992Z" fill="black"/>
<path d="M77.88 108H53.752C51.2773 108 49.4213 107.403 48.184 106.208C46.9467 104.971 46.328 103.499 46.328 101.792C46.328 100.384 46.6053 99.1253 47.16 98.016C47.7573 96.9067 48.6533 95.84 49.848 94.816L60.344 85.792C61.8373 84.512 62.968 83.3813 63.736 82.4C64.504 81.376 64.888 80.2027 64.888 78.88C64.888 78.1973 64.7173 77.5787 64.376 77.024C64.0347 76.4267 63.5227 75.936 62.84 75.552C62.1573 75.168 61.3253 74.976 60.344 74.976C58.68 74.976 57.2293 75.5093 55.992 76.576C54.7973 77.6427 53.9013 78.88 53.304 80.288L44.344 75.232C45.24 73.0987 46.4987 71.1787 48.12 69.472C49.7413 67.7227 51.6613 66.3573 53.88 65.376C56.1413 64.352 58.6373 63.84 61.368 63.84C64.3973 63.84 67.064 64.48 69.368 65.76C71.672 67.04 73.464 68.7467 74.744 70.88C76.0667 72.9707 76.728 75.2747 76.728 77.792C76.728 80.608 76.216 83.04 75.192 85.088C74.168 87.0933 72.696 88.928 70.776 90.592L61.816 98.4C61.9013 98.3147 61.9653 98.2293 62.008 98.144C62.0933 98.016 62.136 97.9093 62.136 97.824C62.136 97.6107 62.0507 97.44 61.88 97.312C61.7093 97.184 61.496 97.12 61.24 97.12H77.88V108Z" fill="#F76707"/>
</symbol>

<symbol id="test" width="81" height="130" viewBox="0 0 81 130" fill="none" xmlns="http://www.w3.org/2000/svg">
<path d="M12.5341 16.6H21.4141V49H12.5341V16.6ZM30.5821 16.6V24.76H3.36607V16.6H30.5821Z" fill="#F76707"/>
<path d="M43.0577 67H26.2097C23.4897 67 21.5217 66.328 20.3057 64.984C19.1217 63.64 18.5297 61.832 18.5297 59.56V42.04C18.5297 39.768 19.1217 37.96 20.3057 36.616C21.5217 35.272 23.4897 34.6 26.2097 34.6H42.8177V42.52H27.4097V59.08H43.0577V67ZM41.7137 54.76H25.4897L24.2897 46.84H41.7137V54.76Z" fill="black"/>
<path d="M46.1945 90.768C43.1225 90.768 40.4345 90.144 38.1305 88.896C35.8585 87.648 34.1625 85.824 33.0425 83.424L40.4345 79.728C40.8825 80.72 41.5705 81.456 42.4985 81.936C43.4585 82.384 44.6905 82.608 46.1945 82.608C46.9945 82.608 47.6985 82.528 48.3065 82.368C48.9145 82.208 49.3945 81.968 49.7465 81.648C50.1305 81.296 50.3225 80.864 50.3225 80.352C50.3225 79.712 50.1145 79.232 49.6985 78.912C49.3145 78.592 48.7545 78.352 48.0185 78.192C47.3145 78 46.4665 77.84 45.4745 77.712C44.2585 77.52 42.9625 77.248 41.5865 76.896C40.2105 76.512 38.8985 75.952 37.6505 75.216C36.4345 74.448 35.4425 73.44 34.6745 72.192C33.9065 70.912 33.5225 69.312 33.5225 67.392C33.5225 65.408 34.0665 63.632 35.1545 62.064C36.2425 60.464 37.7305 59.2 39.6185 58.272C41.5065 57.344 43.6505 56.88 46.0505 56.88C48.8985 56.88 51.4425 57.504 53.6825 58.752C55.9545 60 57.6345 61.824 58.7225 64.224L51.3305 67.92C50.8825 67.12 50.1945 66.448 49.2665 65.904C48.3705 65.328 47.1705 65.04 45.6665 65.04C44.9625 65.04 44.3705 65.12 43.8905 65.28C43.4105 65.408 43.0425 65.632 42.7865 65.952C42.5305 66.24 42.4025 66.608 42.4025 67.056C42.4025 67.664 42.6265 68.16 43.0745 68.544C43.5225 68.896 44.1305 69.184 44.8985 69.408C45.6985 69.6 46.6265 69.776 47.6825 69.936C48.8985 70.128 50.1625 70.416 51.4745 70.8C52.8185 71.152 54.0665 71.712 55.2185 72.48C56.4025 73.216 57.3625 74.208 58.0985 75.456C58.8345 76.704 59.2025 78.304 59.2025 80.256C59.2025 82.24 58.6105 84.032 57.4265 85.632C56.2745 87.2 54.7065 88.448 52.7225 89.376C50.7705 90.304 48.5945 90.768 46.1945 90.768Z" fill="#F76707"/>
<path d="M57.6053 79.6H66.4853V112H57.6053V79.6ZM75.6533 79.6V87.76H48.4373V79.6H75.6533Z" fill="black"/>
</symbol>


</defs>
</svg>