<svg xmlns="http://www.w3.org/2000/svg">
<defs>
    <symbol id="1-2-3-min" width="81" height="100" viewBox="0 0 81 100" fill="none" xmlns="http://www.w3.org/2000/svg">
<g clip-path="url(#clip0_3_8)">
<rect width="81" height="100"/>
<path d="M28.816 50H16.976V20.624C16.976 20.9227 17.104 21.072 17.36 21.072C17.4027 21.072 17.4453 21.072 17.488 21.072C17.5733 21.072 17.6373 21.0507 17.68 21.008L8.08 25.872L2.64 14.544L15.248 8.08C16.4853 7.44 17.7227 6.90667 18.96 6.48C20.24 6.05333 21.4133 5.84 22.48 5.84C24.4 5.84 25.936 6.43733 27.088 7.632C28.24 8.82667 28.816 10.5547 28.816 12.816V50Z" fill="var(--color-primary)"/>
<path d="M54.9984 69H30.8704C28.3958 69 26.5398 68.4027 25.3024 67.208C24.0651 65.9707 23.4464 64.4987 23.4464 62.792C23.4464 61.384 23.7238 60.1253 24.2784 59.016C24.8758 57.9067 25.7718 56.84 26.9664 55.816L37.4624 46.792C38.9558 45.512 40.0864 44.3813 40.8544 43.4C41.6224 42.376 42.0064 41.2027 42.0064 39.88C42.0064 39.1973 41.8358 38.5787 41.4944 38.024C41.1531 37.4267 40.6411 36.936 39.9584 36.552C39.2758 36.168 38.4438 35.976 37.4624 35.976C35.7984 35.976 34.3478 36.5093 33.1104 37.576C31.9158 38.6427 31.0198 39.88 30.4224 41.288L21.4624 36.232C22.3584 34.0987 23.6171 32.1787 25.2384 30.472C26.8598 28.7227 28.7798 27.3573 30.9984 26.376C33.2598 25.352 35.7558 24.84 38.4864 24.84C41.5158 24.84 44.1824 25.48 46.4864 26.76C48.7904 28.04 50.5824 29.7467 51.8624 31.88C53.1851 33.9707 53.8464 36.2747 53.8464 38.792C53.8464 41.608 53.3344 44.04 52.3104 46.088C51.2864 48.0933 49.8144 49.928 47.8944 51.592L38.9344 59.4C39.0198 59.3147 39.0838 59.2293 39.1264 59.144C39.2118 59.016 39.2544 58.9093 39.2544 58.824C39.2544 58.6107 39.1691 58.44 38.9984 58.312C38.8278 58.184 38.6144 58.12 38.3584 58.12H54.9984V69Z" fill="var(--text-1)"/>
<path d="M46.5098 59.68V48.8H68.5898C71.1071 48.8 73.0058 49.4187 74.2858 50.656C75.6085 51.8507 76.2698 53.3013 76.2698 55.008C76.2698 56.032 75.9925 57.0773 75.4378 58.144C74.9258 59.2107 74.2005 60.2987 73.2618 61.408L66.8618 69.024C67.0325 68.8107 67.1391 68.6187 67.1818 68.448C67.2671 68.2347 67.3098 68.0427 67.3098 67.872C67.3098 67.5307 67.1818 67.232 66.9258 66.976C66.7125 66.72 66.3711 66.592 65.9018 66.592H67.6938C69.4005 66.592 71.0005 67.1253 72.4938 68.192C74.0298 69.216 75.2671 70.624 76.2058 72.416C77.1871 74.208 77.6778 76.256 77.6778 78.56C77.6778 81.2907 76.9951 83.7653 75.6298 85.984C74.3071 88.16 72.4298 89.888 69.9978 91.168C67.5658 92.4053 64.7071 93.024 61.4218 93.024C57.6671 93.024 54.3605 92.2133 51.5018 90.592C48.6431 88.9707 46.4245 86.4747 44.8458 83.104L55.0218 77.728C55.6191 79.3067 56.5151 80.48 57.7098 81.248C58.9045 82.016 60.2058 82.4 61.6138 82.4C62.5098 82.4 63.2778 82.2293 63.9178 81.888C64.6005 81.5467 65.1125 81.0773 65.4538 80.48C65.8378 79.8827 66.0298 79.2 66.0298 78.432C66.0298 77.28 65.5605 76.3413 64.6218 75.616C63.7258 74.8907 62.5738 74.528 61.1658 74.528H59.3098C57.7738 74.528 56.5578 74.1227 55.6618 73.312C54.8085 72.5013 54.3605 71.52 54.3178 70.368C54.3178 69.6427 54.5098 68.9173 54.8938 68.192C55.2778 67.424 55.8111 66.6347 56.4938 65.824L62.4458 58.848C62.4031 58.8907 62.3605 58.9547 62.3178 59.04C62.2751 59.0827 62.2538 59.1467 62.2538 59.232C62.2538 59.36 62.2965 59.4667 62.3818 59.552C62.4671 59.6373 62.5738 59.68 62.7018 59.68H46.5098Z" fill="var(--color-primary)"/>
</g>
<defs>
<clipPath id="clip0_3_8">
<rect width="81" height="100"/>
</clipPath>
</defs>
</symbol>

<symbol id="8-1-min" width="81" height="100" viewBox="0 0 81 100" fill="none" xmlns="http://www.w3.org/2000/svg">
<g clip-path="url(#clip0_3_2)">
<rect width="81" height="100"/>
<path d="M21.44 50.96C17.6853 50.96 14.464 50.448 11.776 49.424C9.088 48.4 7.04 46.928 5.632 45.008C4.224 43.088 3.52 40.8053 3.52 38.16C3.52 36.368 3.904 34.704 4.672 33.168C5.48267 31.632 6.656 30.3947 8.192 29.456C9.728 28.5173 11.6053 28.048 13.824 28.048V29.2C11.5627 29.2 9.70667 28.752 8.256 27.856C6.848 26.9173 5.80267 25.7013 5.12 24.208C4.48 22.7147 4.16 21.1147 4.16 19.408C4.16 16.6773 4.88533 14.3093 6.336 12.304C7.78667 10.2987 9.81333 8.74133 12.416 7.632C15.0187 6.48 18.048 5.904 21.504 5.904C25.0027 5.904 28.032 6.48 30.592 7.632C33.152 8.74133 35.136 10.2987 36.544 12.304C37.9947 14.3093 38.72 16.6773 38.72 19.408C38.72 21.1147 38.3787 22.7147 37.696 24.208C37.056 25.7013 36.032 26.9173 34.624 27.856C33.216 28.752 31.36 29.2 29.056 29.2V28.048C31.3173 28.048 33.1947 28.5173 34.688 29.456C36.224 30.352 37.376 31.568 38.144 33.104C38.9547 34.5973 39.36 36.24 39.36 38.032C39.36 40.6773 38.656 42.9813 37.248 44.944C35.84 46.864 33.792 48.3573 31.104 49.424C28.4587 50.448 25.2373 50.96 21.44 50.96ZM21.44 41.04C23.4453 41.04 24.96 40.656 25.984 39.888C27.008 39.12 27.52 38.1173 27.52 36.88C27.52 36.0693 27.264 35.3653 26.752 34.768C26.2827 34.1707 25.6 33.7013 24.704 33.36C23.808 33.0187 22.72 32.848 21.44 32.848C20.2027 32.848 19.1147 33.0187 18.176 33.36C17.28 33.7013 16.576 34.1707 16.064 34.768C15.5947 35.3653 15.36 36.0693 15.36 36.88C15.36 38.1173 15.872 39.12 16.896 39.888C17.9627 40.656 19.4773 41.04 21.44 41.04ZM21.44 24.464C23.1467 24.464 24.4693 24.08 25.408 23.312C26.3893 22.5013 26.88 21.392 26.88 19.984C26.88 19.1733 26.6453 18.4693 26.176 17.872C25.7493 17.232 25.1307 16.7413 24.32 16.4C23.5093 16.016 22.528 15.824 21.376 15.824C20.2667 15.824 19.3067 16.016 18.496 16.4C17.6853 16.7413 17.0667 17.232 16.64 17.872C16.2133 18.4693 16 19.1733 16 19.984C16 21.392 16.4693 22.5013 17.408 23.312C18.3893 24.08 19.7333 24.464 21.44 24.464Z" fill="var(--color-primary)"/>
<path d="M72.0498 92H60.2098V62.624C60.2098 62.9227 60.3378 63.072 60.5938 63.072C60.6364 63.072 60.6791 63.072 60.7218 63.072C60.8071 63.072 60.8711 63.0507 60.9138 63.008L51.3138 67.872L45.8738 56.544L58.4818 50.08C59.7191 49.44 60.9564 48.9067 62.1938 48.48C63.4738 48.0533 64.6471 47.84 65.7138 47.84C67.6338 47.84 69.1698 48.4373 70.3218 49.632C71.4738 50.8267 72.0498 52.5547 72.0498 54.816V92Z" fill="var(--color-primary)"/>
<path d="M40.6039 88H27.7399L23.1959 79.872C22.5559 78.7627 22.0653 77.5467 21.7239 76.224C21.4253 74.8587 21.2759 73.5147 21.2759 72.192C21.2759 70.8267 21.4253 69.4613 21.7239 68.096C22.0653 66.7307 22.5559 65.472 23.1959 64.32L27.6759 56H40.6679L33.4359 68.736C32.6253 70.1013 32.2199 71.2107 32.2199 72.064C32.2199 72.96 32.6893 74.2187 33.6279 75.84L40.6039 88ZM14.6199 88H1.75594L8.73194 75.84C9.67061 74.2187 10.1399 72.96 10.1399 72.064C10.1399 71.2107 9.73461 70.1013 8.92394 68.736L1.69194 56H14.6839L19.1639 64.32C19.8039 65.472 20.2733 66.7307 20.5719 68.096C20.9133 69.4613 21.0839 70.8267 21.0839 72.192C21.0839 73.5147 20.9133 74.8587 20.5719 76.224C20.2733 77.5467 19.8039 78.7627 19.1639 79.872L14.6199 88ZM27.9959 76.992H15.3879V66.752H27.9959V76.992Z" fill="var(--text-1)"/>
</g>
<defs>
<clipPath id="clip0_3_2">
<rect width="81" height="100"/>
</clipPath>
</defs>
</symbol>

<symbol id="6-2-min" width="81" height="100" viewBox="0 0 81 100" fill="none" xmlns="http://www.w3.org/2000/svg">
<g clip-path="url(#clip0_3_3)">
<rect width="81" height="100"/>
<path d="M18.688 51.024C15.1893 51.024 12.1813 50.32 9.664 48.912C7.18933 47.504 5.26933 45.648 3.904 43.344C2.58133 41.04 1.92 38.544 1.92 35.856C1.92 33.5093 2.32533 31.2907 3.136 29.2C3.94667 27.0667 5.16267 24.5707 6.784 21.712L15.36 6.8H28.544L16.256 28.624L8.064 29.584C8.064 27.92 8.64 26.4053 9.792 25.04C10.944 23.6747 12.416 22.608 14.208 21.84C16.0427 21.0293 17.9627 20.624 19.968 20.624C22.912 20.624 25.5573 21.1787 27.904 22.288C30.2507 23.3973 32.1067 25.0187 33.472 27.152C34.8373 29.2427 35.52 31.7813 35.52 34.768C35.52 37.9253 34.816 40.7413 33.408 43.216C32 45.648 30.0373 47.568 27.52 48.976C25.0027 50.3413 22.0587 51.024 18.688 51.024ZM18.56 40.848C19.6693 40.848 20.6293 40.592 21.44 40.08C22.2507 39.568 22.8693 38.8853 23.296 38.032C23.7653 37.1787 24 36.24 24 35.216C24 34.32 23.7653 33.4667 23.296 32.656C22.8693 31.8027 22.2507 31.12 21.44 30.608C20.6293 30.096 19.6693 29.84 18.56 29.84C17.4933 29.84 16.5333 30.1173 15.68 30.672C14.8693 31.184 14.2293 31.8667 13.76 32.72C13.3333 33.5733 13.12 34.448 13.12 35.344C13.12 36.368 13.3333 37.3067 13.76 38.16C14.2293 38.9707 14.8693 39.632 15.68 40.144C16.5333 40.6133 17.4933 40.848 18.56 40.848Z" fill="var(--color-primary)"/>
<path d="M40.552 88H27.688L23.144 79.872C22.504 78.7627 22.0133 77.5467 21.672 76.224C21.3733 74.8587 21.224 73.5147 21.224 72.192C21.224 70.8267 21.3733 69.4613 21.672 68.096C22.0133 66.7307 22.504 65.472 23.144 64.32L27.624 56H40.616L33.384 68.736C32.5733 70.1013 32.168 71.2107 32.168 72.064C32.168 72.96 32.6373 74.2187 33.576 75.84L40.552 88ZM14.568 88H1.704L8.68 75.84C9.61867 74.2187 10.088 72.96 10.088 72.064C10.088 71.2107 9.68267 70.1013 8.872 68.736L1.64 56H14.632L19.112 64.32C19.752 65.472 20.2213 66.7307 20.52 68.096C20.8613 69.4613 21.032 70.8267 21.032 72.192C21.032 73.5147 20.8613 74.8587 20.52 76.224C20.2213 77.5467 19.752 78.7627 19.112 79.872L14.568 88ZM27.944 76.992H15.336V66.752H27.944V76.992Z" fill="var(--text-1)"/>
<path d="M77.88 92H53.752C51.2773 92 49.4213 91.4027 48.184 90.208C46.9467 88.9707 46.328 87.4987 46.328 85.792C46.328 84.384 46.6053 83.1253 47.16 82.016C47.7573 80.9067 48.6533 79.84 49.848 78.816L60.344 69.792C61.8373 68.512 62.968 67.3813 63.736 66.4C64.504 65.376 64.888 64.2027 64.888 62.88C64.888 62.1973 64.7173 61.5787 64.376 61.024C64.0347 60.4267 63.5227 59.936 62.84 59.552C62.1573 59.168 61.3253 58.976 60.344 58.976C58.68 58.976 57.2293 59.5093 55.992 60.576C54.7973 61.6427 53.9013 62.88 53.304 64.288L44.344 59.232C45.24 57.0987 46.4987 55.1787 48.12 53.472C49.7413 51.7227 51.6613 50.3573 53.88 49.376C56.1413 48.352 58.6373 47.84 61.368 47.84C64.3973 47.84 67.064 48.48 69.368 49.76C71.672 51.04 73.464 52.7467 74.744 54.88C76.0667 56.9707 76.728 59.2747 76.728 61.792C76.728 64.608 76.216 67.04 75.192 69.088C74.168 71.0933 72.696 72.928 70.776 74.592L61.816 82.4C61.9013 82.3147 61.9653 82.2293 62.008 82.144C62.0933 82.016 62.136 81.9093 62.136 81.824C62.136 81.6107 62.0507 81.44 61.88 81.312C61.7093 81.184 61.496 81.12 61.24 81.12H77.88V92Z" fill="var(--color-primary)"/>
</g>
<defs>
<clipPath id="clip0_3_3">
<rect width="81" height="100"/>
</clipPath>
</defs>
</symbol>

<symbol id="test" width="81" height="100" viewBox="0 0 81 100" fill="none" xmlns="http://www.w3.org/2000/svg">
<g clip-path="url(#clip0_3_13)">
<rect width="81" height="100"/>
<path d="M12.5341 2.6H21.4141V35H12.5341V2.6ZM30.5821 2.6V10.76H3.36607V2.6H30.5821Z" fill="var(--color-primary)"/>
<path d="M43.0577 53H26.2097C23.4897 53 21.5217 52.328 20.3057 50.984C19.1217 49.64 18.5297 47.832 18.5297 45.56V28.04C18.5297 25.768 19.1217 23.96 20.3057 22.616C21.5217 21.272 23.4897 20.6 26.2097 20.6H42.8177V28.52H27.4097V45.08H43.0577V53ZM41.7137 40.76H25.4897L24.2897 32.84H41.7137V40.76Z" fill="var(--text-1)"/>
<path d="M46.1945 76.768C43.1225 76.768 40.4345 76.144 38.1305 74.896C35.8585 73.648 34.1625 71.824 33.0425 69.424L40.4345 65.728C40.8825 66.72 41.5705 67.456 42.4985 67.936C43.4585 68.384 44.6905 68.608 46.1945 68.608C46.9945 68.608 47.6985 68.528 48.3065 68.368C48.9145 68.208 49.3945 67.968 49.7465 67.648C50.1305 67.296 50.3225 66.864 50.3225 66.352C50.3225 65.712 50.1145 65.232 49.6985 64.912C49.3145 64.592 48.7545 64.352 48.0185 64.192C47.3145 64 46.4665 63.84 45.4745 63.712C44.2585 63.52 42.9625 63.248 41.5865 62.896C40.2105 62.512 38.8985 61.952 37.6505 61.216C36.4345 60.448 35.4425 59.44 34.6745 58.192C33.9065 56.912 33.5225 55.312 33.5225 53.392C33.5225 51.408 34.0665 49.632 35.1545 48.064C36.2425 46.464 37.7305 45.2 39.6185 44.272C41.5065 43.344 43.6505 42.88 46.0505 42.88C48.8985 42.88 51.4425 43.504 53.6825 44.752C55.9545 46 57.6345 47.824 58.7225 50.224L51.3305 53.92C50.8825 53.12 50.1945 52.448 49.2665 51.904C48.3705 51.328 47.1705 51.04 45.6665 51.04C44.9625 51.04 44.3705 51.12 43.8905 51.28C43.4105 51.408 43.0425 51.632 42.7865 51.952C42.5305 52.24 42.4025 52.608 42.4025 53.056C42.4025 53.664 42.6265 54.16 43.0745 54.544C43.5225 54.896 44.1305 55.184 44.8985 55.408C45.6985 55.6 46.6265 55.776 47.6825 55.936C48.8985 56.128 50.1625 56.416 51.4745 56.8C52.8185 57.152 54.0665 57.712 55.2185 58.48C56.4025 59.216 57.3625 60.208 58.0985 61.456C58.8345 62.704 59.2025 64.304 59.2025 66.256C59.2025 68.24 58.6105 70.032 57.4265 71.632C56.2745 73.2 54.7065 74.448 52.7225 75.376C50.7705 76.304 48.5945 76.768 46.1945 76.768Z" fill="#F76707"/>
<path d="M57.6053 65.6H66.4853V98H57.6053V65.6ZM75.6533 65.6V73.76H48.4373V65.6H75.6533Z" fill="var(--text-1)"/>
</g>
<defs>
<clipPath id="clip0_3_13">
<rect width="81" height="100"/>
</clipPath>
</defs>
</symbol>
</defs>
</svg>